# xmcd
#
# Track frame offsets:
#	180
#	11654
#	24943
#	47613
#	65784
#	86378
#
# Disc length: 1256 seconds
#
# Revision: 1
# Processed by: cddbd v1.5.2PL0 Copyright (c) Steve Scherf et al.
# Submitted via: audiograbber 1.83.01
#
DISCID=4004e606
DTITLE=Pälzer Buwe - ...immer noch dorscht!
DYEAR=1900
DGENRE=
TTITLE0=Pälzer Buwe
TTITLE1=Bierlied
TTITLE2=Lolakönigin
TTITLE3=Neue Frauen braucht das Land
TTITLE4=Britney S.
TTITLE5=Time to say schenk ein
EXTD=
EXTT0=
EXTT1=
EXTT2=
EXTT3=
EXTT4=
EXTT5=
PLAYORDER=
